# ProBuilder 5.0.6
# https://unity3d.com/unity/features/worldbuilding/probuilder
# 1/8/2023 10:59:22 PM

mtllib ./Door.mtl
o Door

g Door
v 206.1278 217.8486 363.2377
v 206.1278 0 363.2374
v -34.99999 217.8486 363.2415
v -34.99998 0 363.2411
v -263.4705 0 363.2411
v -389.9654 21.54957 363.2437
v -263.4705 217.8486 363.2415
v -389.9652 239.3982 363.244
v 206.1278 217.8486 -0.003483626
v -34.99999 217.8486 0.0003282437
v 206.1278 0 -0.003830733
v -34.99998 0 3.051758E-05
v -263.4705 0 3.051758E-05
v -263.4705 217.8486 0.0004203669
v -389.9653 0.2253561 0.002674234
v -389.9652 239.3982 0.002905636
v -34.99999 292.0842 363.2414
v -34.99999 414.1889 363.2414
v 206.1278 414.1888 363.2376
v -263.4704 414.1889 363.2414
v -263.4705 292.0842 363.2413
v -389.9653 435.7384 363.2439
v -149.2352 270.9113 363.2415
v -149.2352 292.0842 363.2413
v -149.2352 414.1889 363.2413
v 206.1278 414.1888 -0.003599328
v -34.99999 414.1889 0.0002125415
v -34.99999 292.0842 0.0001546904
v -263.4704 414.1889 0.0003046647
v -389.9653 435.7384 0.002789935
v -263.4705 292.0842 0.0002468136
v -149.2352 292.0842 0.000200752
v -149.2352 270.9113 0.0003743052
v -149.2352 414.1889 0.0002586031
v -149.2352 270.9113 181.621
v -263.4705 217.8486 181.6209
v -34.99999 217.8486 181.6209
v -414.5457 311.6579 363.2505
v -414.5457 93.80939 363.25
v -510.5911 311.658 363.2512
v -510.591 93.80939 363.2508
v -739.0615 93.80939 363.2507
v -788.5542 93.80939 363.2513
v -739.0615 311.658 363.2507
v -788.554 311.6579 363.2513
v -414.5457 311.6579 0.009289384
v -510.5911 311.658 0.009787981
v -414.5457 94.62181 0.008942277
v -510.591 93.80939 0.00978798
v -739.0615 93.80939 0.009417295
v -739.0615 311.658 0.009880104
v -788.5542 93.80939 0.009811177
v -788.554 311.6579 0.01027398
v -510.5911 385.8936 363.2508
v -510.5909 435.215 363.2512
v -414.5457 435.2149 363.2502
v -739.0613 435.215 363.2507
v -739.0615 385.8936 363.2507
v -788.5541 435.2149 363.2513
v -624.8262 364.7206 363.2513
v -624.8262 385.8936 363.2508
v -624.826 435.215 363.2513
v -414.5457 435.2149 0.009057979
v -510.5909 435.215 0.00978798
v -510.5911 385.8936 0.009787981
v -739.0613 435.215 0.0098801
v -788.5538 435.2149 0.01027398
v -739.0615 385.8936 0.009880104
v -624.8262 385.8936 0.009834041
v -624.8262 364.7206 0.009834041
v -624.826 435.215 0.009834039
v -624.8262 364.7206 181.6308
v -739.0614 311.658 181.6304
v -510.591 311.658 181.6303

vt 206.122 217.8492
vt 206.122 0.0005597349
vt -35.00574 217.8492
vt -35.00573 0.0005597349
vt -263.4775 0.0006106121
vt -389.9724 21.55018
vt -263.4775 217.8492
vt -389.9723 239.3988
vt -206.1278 217.8486
vt 34.99999 217.8486
vt -206.1278 -9.116451E-10
vt 34.99998 -8.329658E-10
vt 263.4705 -9.797959E-09
vt 263.4705 217.8486
vt 389.9653 0.2253561
vt 389.9652 239.3982
vt 206.1221 217.8484
vt -35.00568 217.8484
vt -35.00568 292.084
vt -35.00568 414.1888
vt 206.1221 414.1887
vt -263.4777 414.1887
vt -263.4777 292.084
vt -263.4777 217.8484
vt -389.9725 239.398
vt -389.9725 435.7382
vt -34.99995 217.8483
vt -149.2352 270.9109
vt -149.2352 292.0839
vt -34.99995 292.0839
vt -263.4704 217.8483
vt -263.4704 292.0839
vt -263.4704 414.1886
vt -149.2352 414.1886
vt -34.99995 414.1886
vt -206.1278 414.1888
vt 34.99999 414.1889
vt 34.99999 292.0842
vt 263.4704 414.1889
vt 389.9653 435.7384
vt 263.4705 292.0842
vt 149.2352 292.0842
vt 149.2352 270.9113
vt 149.2352 414.1889
vt -263.4705 363.2415
vt -149.2352 363.2415
vt -149.2352 181.621
vt -263.4705 181.6209
vt -35 363.2415
vt -35 181.6209
vt -35 0.0003282437
vt -149.2352 0.0003743052
vt -263.4705 0.0004203669
vt -3.051758E-05 0
vt -363.2411 0
vt -363.2415 217.8486
vt -181.6209 217.8486
vt -0.0004203669 217.8486
vt 363.2411 1.225754E-06
vt 181.6209 217.8486
vt 363.2415 217.8486
vt 61.04318 239.3987
vt 61.04318 21.55019
vt -35.00217 239.3988
vt -35.00211 21.55019
vt -263.4757 21.55018
vt -312.9685 21.55019
vt -263.4757 239.3988
vt -312.9683 239.3987
vt -61.04541 239.3981
vt 34.99997 239.3982
vt -61.04544 22.362
vt 34.99991 21.54958
vt 263.4704 21.54958
vt 263.4704 239.3982
vt 312.9631 21.54958
vt 312.963 239.3981
vt 61.04337 239.398
vt -35.00198 239.3981
vt -35.00198 313.6336
vt -35.00186 362.9551
vt 61.0434 362.9549
vt -263.4757 362.9552
vt -263.476 313.6338
vt -263.476 239.3982
vt -312.9684 239.3981
vt -312.9685 362.9551
vt -510.591 311.6581
vt -624.8262 364.7208
vt -624.8262 385.8937
vt -510.591 385.8937
vt -624.826 364.7206
vt -739.0613 311.658
vt -739.0613 385.8936
vt -624.826 385.8936
vt -739.061 435.215
vt -624.8257 435.215
vt -624.8261 435.2148
vt -510.591 435.2148
vt -510.5911 385.8933
vt -624.8262 385.8933
vt -61.04547 362.9551
vt 34.99982 362.9552
vt 34.99994 313.6338
vt 263.4702 362.9552
vt 312.9628 362.9551
vt 263.4704 313.6338
vt 510.5911 311.658
vt 510.5911 385.8936
vt 624.8262 385.8936
vt 624.8262 364.7206
vt 510.5909 435.215
vt 624.826 435.215
vt 739.0613 435.215
vt 739.0615 385.8936
vt 739.0615 311.658
vt -738.3942 362.8842
vt -616.2437 368.3741
vt -607.868 181.9973
vt -730.0184 176.5074
vt -633.0595 363.2513
vt -518.8244 363.2512
vt -518.8243 181.6302
vt -633.0596 181.6308
vt -519.634 186.7534
vt -511.2585 0.375824
vt -633.4086 -5.11338
vt -641.7842 181.2647
vt -607.8679 0.3760986
vt -730.0184 -5.113297
vt -738.3942 181.264
vt -616.2438 186.7539
vt -0.000213623 21.54957
vt -363.2415 21.54957
vt -363.2415 239.3982
vt -181.6212 239.3982
vt -0.0006866455 239.3982
vt 363.2411 21.5495
vt 0.0001373291 239.3982
vt 181.6206 239.3982
vt 363.2416 239.3982
vt 60.95212 239.3987
vt 60.95212 21.55018
vt 85.53259 167.139
vt 85.53247 -50.70966
vt 60.95184 362.9547
vt 60.95181 239.3977
vt 85.53226 363.4782
vt 85.53229 167.138
vt -85.62589 167.1384
vt -85.62585 363.4786
vt 414.5457 311.6579
vt 414.5457 94.62181

vn 1.582023E-05 -1.540948E-06 1
vn -1.580851E-05 1.593339E-06 -1
vn 0.4212737 -0.9069335 0
vn -0.4212737 -0.9069335 0
vn 1 0 0
vn -1 -3.502154E-08 0

usemtl Castle
f 17/19/1 3/18/1 1/17/1
f 17/19/1 1/17/1 19/21/1
f 18/20/1 17/19/1 19/21/1
f 8/25/1 7/24/1 21/23/1
f 22/26/1 8/25/1 21/23/1
f 22/26/1 21/23/1 20/22/1
f 26/36/2 28/38/2 27/37/2
f 26/36/2 9/9/2 28/38/2
f 9/9/2 10/10/2 28/38/2
f 29/39/2 31/41/2 30/40/2
f 31/41/2 16/16/2 30/40/2
f 31/41/2 14/14/2 16/16/2
f 13/54/5 14/58/5 36/57/5
f 13/54/5 36/57/5 5/55/5
f 7/56/5 5/55/5 36/57/5
f 37/60/6 4/59/6 3/61/6
f 4/59/6 37/60/6 12/54/6
f 37/60/6 10/58/6 12/54/6
f 54/80/1 40/79/1 38/78/1
f 54/80/1 38/78/1 56/82/1
f 55/81/1 54/80/1 56/82/1
f 45/86/1 44/85/1 58/84/1
f 59/87/1 45/86/1 58/84/1
f 59/87/1 58/84/1 57/83/1
f 63/102/2 65/104/2 64/103/2
f 63/102/2 46/70/2 65/104/2
f 46/70/2 47/71/2 65/104/2
f 66/105/2 68/107/2 67/106/2
f 68/107/2 53/77/2 67/106/2
f 68/107/2 51/75/2 53/77/2
f 50/133/5 51/137/5 73/136/5
f 50/133/5 73/136/5 42/134/5
f 44/135/5 42/134/5 73/136/5
f 74/140/6 41/138/6 40/141/6
f 41/138/6 74/140/6 49/133/6
f 74/140/6 47/139/6 49/133/6
f 4/4/1 2/2/1 1/1/1
f 1/1/1 3/3/1 4/4/1
f 8/8/1 6/6/1 5/5/1
f 5/5/1 7/7/1 8/8/1
f 12/12/2 10/10/2 9/9/2
f 9/9/2 11/11/2 12/12/2
f 16/16/2 14/14/2 13/13/2
f 13/13/2 15/15/2 16/16/2
f 23/28/1 3/27/1 17/30/1
f 17/30/1 24/29/1 23/28/1
f 21/32/1 7/31/1 23/28/1
f 23/28/1 24/29/1 21/32/1
f 20/33/1 21/32/1 24/29/1
f 24/29/1 25/34/1 20/33/1
f 25/34/1 24/29/1 17/30/1
f 17/30/1 18/35/1 25/34/1
f 33/43/2 32/42/2 28/38/2
f 28/38/2 10/10/2 33/43/2
f 34/44/2 27/37/2 28/38/2
f 28/38/2 32/42/2 34/44/2
f 29/39/2 34/44/2 32/42/2
f 32/42/2 31/41/2 29/39/2
f 31/41/2 32/42/2 33/43/2
f 33/43/2 14/14/2 31/41/2
f 23/46/3 7/45/3 36/48/3
f 36/48/3 35/47/3 23/46/3
f 35/47/4 37/50/4 3/49/4
f 3/49/4 23/46/4 35/47/4
f 37/50/4 35/47/4 33/52/4
f 33/52/4 10/51/4 37/50/4
f 35/47/3 36/48/3 14/53/3
f 14/53/3 33/52/3 35/47/3
f 41/65/1 39/63/1 38/62/1
f 38/62/1 40/64/1 41/65/1
f 45/69/1 43/67/1 42/66/1
f 42/66/1 44/68/1 45/69/1
f 49/73/2 47/71/2 46/70/2
f 46/70/2 48/72/2 49/73/2
f 53/77/2 51/75/2 50/74/2
f 50/74/2 52/76/2 53/77/2
f 60/89/1 40/88/1 54/91/1
f 54/91/1 61/90/1 60/89/1
f 58/94/1 44/93/1 60/92/1
f 60/92/1 61/95/1 58/94/1
f 57/96/1 58/94/1 61/95/1
f 61/95/1 62/97/1 57/96/1
f 62/98/1 61/101/1 54/100/1
f 54/100/1 55/99/1 62/98/1
f 70/111/2 69/110/2 65/109/2
f 65/109/2 47/108/2 70/111/2
f 71/113/2 64/112/2 65/109/2
f 65/109/2 69/110/2 71/113/2
f 66/114/2 71/113/2 69/110/2
f 69/110/2 68/115/2 66/114/2
f 68/115/2 69/110/2 70/111/2
f 70/111/2 51/116/2 68/115/2
f 60/118/3 44/117/3 73/120/3
f 73/120/3 72/119/3 60/118/3
f 72/124/4 74/123/4 40/122/4
f 40/122/4 60/121/4 72/124/4
f 74/125/4 72/128/4 70/127/4
f 70/127/4 47/126/4 74/125/4
f 72/132/3 73/131/3 51/130/3
f 51/130/3 70/129/3 72/132/3
f 8/144/1 38/142/1 39/143/1
f 39/143/1 6/145/1 8/144/1
f 22/148/1 56/146/1 38/147/1
f 38/147/1 8/149/1 22/148/1
f 16/150/2 46/70/2 63/102/2
f 63/102/2 30/151/2 16/150/2
f 46/152/2 16/16/2 15/15/2
f 15/15/2 48/153/2 46/152/2

